<svg width="4" height="4" viewBox="0 0 4 4" fill="none" xmlns="http://www.w3.org/2000/svg">
<path d="M2.11904 1.71133L3.34274 0.488567C3.45398 0.377407 3.45398 0.19453 3.34274 0.0833702C3.23149 -0.0277901 3.04848 -0.0277901 2.93723 0.0833702L1.71354 1.30613L0.489838 0.0833704C0.378593 -0.0277898 0.195577 -0.0277898 0.0843314 0.0833704C0.0287087 0.138951 2.43364e-07 0.21246 2.43364e-07 0.285969C2.43364e-07 0.359478 0.0287087 0.432987 0.0843314 0.488567L1.30803 1.71133L0.0843311 2.93409C0.0287085 2.98967 0 3.06318 0 3.13669C0 3.2102 0.0287085 3.28371 0.0843311 3.33929C0.195576 3.45045 0.378593 3.45045 0.489838 3.33929L1.71354 2.11653L2.93723 3.33929C3.04848 3.45045 3.23149 3.45045 3.34274 3.33929C3.45398 3.22813 3.45398 3.04525 3.34274 2.93409L2.11904 1.71133Z" fill="#787486"/>
</svg>
