<svg width="6" height="6" viewBox="0 0 6 6" fill="none" xmlns="http://www.w3.org/2000/svg">
<path fill-rule="evenodd" clip-rule="evenodd" d="M2.91863 0C3.39047 0 3.86052 0.116394 4.27816 0.336593C5.70011 1.08686 6.24695 2.8541 5.49719 4.27653C4.98579 5.24648 3.97893 5.83333 2.91529 5.83333C2.7075 5.83333 2.49765 5.81098 2.28883 5.76473C2.17119 5.73852 2.09696 5.62187 2.1229 5.50419C2.14884 5.38651 2.2652 5.31277 2.38361 5.33821C3.46984 5.57973 4.59127 5.0584 5.11088 4.07277C5.74839 2.86361 5.28349 1.36076 4.07448 0.723032C3.7195 0.535722 3.31984 0.4368 2.91838 0.4368H2.91555C1.54883 0.4368 0.436654 1.5491 0.436654 2.91628C0.43614 3.31454 0.533231 3.711 0.717395 4.06327L0.773389 4.17272C0.841969 4.30119 0.857123 4.46075 0.812688 4.60515C0.7513 4.76703 0.700186 4.92453 0.658062 5.08127C0.821934 5.03193 1.02202 4.95922 1.16663 4.90655L1.22597 4.88522C1.33821 4.84334 1.46433 4.90269 1.50542 5.01626C1.54652 5.12957 1.4877 5.25496 1.37443 5.29581L1.31586 5.31714L1.30592 5.32074C1.09059 5.39877 0.800651 5.50385 0.603865 5.54787C0.586913 5.55147 0.568676 5.55378 0.551981 5.55327C0.417903 5.55327 0.336224 5.49905 0.291274 5.45332C0.22218 5.38317 0.189303 5.28476 0.193156 5.16092C0.19367 5.14679 0.195468 5.13214 0.198807 5.11801C0.250691 4.89704 0.318244 4.67658 0.399923 4.46307C0.405831 4.44225 0.402235 4.40448 0.38554 4.37288L0.329289 4.26368C0.113788 3.85103 -0.000511984 3.38417 1.724e-06 2.91602C1.724e-06 1.30809 1.3079 0 2.91529 0H2.91863ZM1.28432 2.9164C1.28432 2.72498 1.43972 2.56953 1.63108 2.56953C1.82243 2.56953 1.97783 2.72498 1.97783 2.9164C1.97783 3.10757 1.82243 3.26302 1.63108 3.26302C1.43972 3.26302 1.28432 3.10757 1.28432 2.9164ZM3.26215 2.9163C3.26215 2.72514 3.10675 2.56943 2.91539 2.56943C2.72404 2.56943 2.56864 2.72514 2.56864 2.9163C2.56864 3.10747 2.72404 3.26317 2.91539 3.26317C3.10675 3.26317 3.26215 3.10747 3.26215 2.9163ZM4.19971 2.56943C4.39107 2.56943 4.54646 2.72514 4.54646 2.9163C4.54646 3.10747 4.39107 3.26317 4.19971 3.26317C4.00835 3.26317 3.85296 3.10747 3.85296 2.9163C3.85296 2.72514 4.00835 2.56943 4.19971 2.56943Z" fill="#FDFCE9"/>
</svg>
