<svg width="5" height="7" viewBox="0 0 5 7" fill="none" xmlns="http://www.w3.org/2000/svg">
<path d="M5 4.36099C5 4.25955 4.96266 4.158 4.88925 4.08069L4.85698 4.04662C4.71015 3.8916 4.47242 3.8916 4.32596 4.04662L2.87521 5.57823L2.87521 0.396454C2.87521 0.177611 2.70697 2.7344e-08 2.49969 2.98159e-08C2.2924 3.22878e-08 2.12416 0.177611 2.12416 0.396454L2.12416 5.57823L0.673408 4.04662C0.526578 3.8916 0.288848 3.8916 0.142394 4.04662L0.110122 4.08069C-0.0367078 4.2357 -0.0367078 4.48668 0.110122 4.6413L2.23418 6.88374C2.38101 7.03875 2.61874 7.03875 2.76519 6.88374L4.88925 4.6413C4.96266 4.56379 5 4.46244 5 4.36099Z" fill="#C73434"/>
</svg>
