<svg width="26" height="26" viewBox="0 0 26 26" fill="none" xmlns="http://www.w3.org/2000/svg">
<g clip-path="url(#clip0_95_4757)">
<path d="M14.6715 12.9999C14.6715 13.3305 14.5734 13.6537 14.3898 13.9285C14.2061 14.2034 13.9451 14.4176 13.6397 14.5441C13.3343 14.6706 12.9982 14.7037 12.674 14.6392C12.3497 14.5747 12.0519 14.4156 11.8182 14.1818C11.5844 13.948 11.4252 13.6502 11.3607 13.326C11.2962 13.0018 11.3293 12.6657 11.4558 12.3603C11.5824 12.0549 11.7966 11.7938 12.0714 11.6102C12.3463 11.4265 12.6695 11.3285 13 11.3285C13.4433 11.3285 13.8685 11.5046 14.1819 11.818C14.4954 12.1315 14.6715 12.5566 14.6715 12.9999Z" stroke="black" stroke-linecap="round" stroke-linejoin="round"/>
<path d="M16.9981 14.6209C16.9261 14.7839 16.9046 14.9647 16.9364 15.14C16.9682 15.3153 17.0517 15.4771 17.1763 15.6044L17.209 15.6371C17.4118 15.8398 17.5257 16.1148 17.5257 16.4015C17.5257 16.6882 17.4118 16.9632 17.209 17.1659C17.0063 17.3686 16.7313 17.4825 16.4446 17.4825C16.1579 17.4825 15.883 17.3686 15.6802 17.1659L15.6475 17.1332C15.5212 17.0111 15.3618 16.9286 15.1891 16.8961C15.0164 16.8636 14.838 16.8824 14.6759 16.9502C14.5137 17.018 14.3751 17.1319 14.277 17.2777C14.1789 17.4235 14.1257 17.5949 14.1239 17.7706V17.8627C14.1166 18.1444 13.9995 18.412 13.7977 18.6086C13.5958 18.8052 13.3252 18.9152 13.0435 18.9152C12.7617 18.9152 12.4911 18.8052 12.2893 18.6086C12.0874 18.412 11.9704 18.1444 11.963 17.8627V17.8137C11.9591 17.6347 11.9014 17.461 11.7974 17.3152C11.6933 17.1695 11.5479 17.0584 11.3798 16.9965C11.2168 16.9246 11.036 16.9031 10.8607 16.9349C10.6854 16.9666 10.5236 17.0502 10.3963 17.1748L10.3636 17.2075C10.1609 17.4102 9.8859 17.5241 9.5992 17.5241C9.31249 17.5241 9.03753 17.4102 8.8348 17.2075C8.63207 17.0048 8.51817 16.7298 8.51817 16.4431C8.51817 16.1564 8.63207 15.8814 8.8348 15.6787L8.86748 15.646C8.98964 15.5197 9.07207 15.3603 9.1046 15.1876C9.13713 15.0149 9.11832 14.8365 9.0505 14.6744C8.98268 14.5122 8.86882 14.3735 8.72301 14.2755C8.57721 14.1774 8.40584 14.1242 8.23011 14.1224H8.138C7.99372 14.1262 7.85015 14.1011 7.71575 14.0485C7.58135 13.9959 7.45885 13.9169 7.35547 13.8162C7.25209 13.7155 7.16992 13.5951 7.11382 13.4621C7.05771 13.3291 7.02881 13.1863 7.02881 13.0419C7.02881 12.8976 7.05771 12.7548 7.11382 12.6218C7.16992 12.4888 7.25209 12.3684 7.35547 12.2677C7.45885 12.167 7.58135 12.088 7.71575 12.0354C7.85015 11.9828 7.99372 11.9577 8.138 11.9615H8.18628C8.3653 11.9576 8.539 11.8999 8.68475 11.7958C8.8305 11.6918 8.94155 11.5463 9.00343 11.3783C9.0754 11.2153 9.09689 11.0345 9.06511 10.8592C9.03333 10.6839 8.94975 10.5221 8.82514 10.3948L8.79246 10.3621C8.68652 10.263 8.6016 10.1437 8.54275 10.0112C8.4839 9.87861 8.45232 9.73558 8.4499 9.59058C8.44748 9.44558 8.47426 9.30157 8.52865 9.16714C8.58305 9.0327 8.66394 8.91059 8.76651 8.80807C8.86908 8.70555 8.99123 8.62472 9.12569 8.57039C9.26015 8.51606 9.40417 8.48935 9.54917 8.49184C9.69418 8.49433 9.83719 8.52598 9.96971 8.58489C10.1022 8.64381 10.2215 8.72879 10.3205 8.83477L10.3532 8.86746C10.4805 8.99206 10.6423 9.07565 10.8176 9.10743C10.9929 9.13921 11.1738 9.11772 11.3367 9.04574H11.3798C11.5398 8.97714 11.6762 8.8632 11.7721 8.71799C11.8681 8.57278 11.9195 8.40266 11.9199 8.2286V8.13797C11.9273 7.85632 12.0443 7.58867 12.2462 7.39207C12.448 7.19547 12.7186 7.08545 13.0004 7.08545C13.2821 7.08545 13.5527 7.19547 13.7546 7.39207C13.9564 7.58867 14.0735 7.85632 14.0809 8.13797V8.18626C14.0826 8.36198 14.1358 8.53335 14.2339 8.67916C14.332 8.82497 14.4707 8.93882 14.6328 9.00664C14.7949 9.07446 14.9733 9.09327 15.146 9.06075C15.3187 9.02822 15.4781 8.94578 15.6045 8.82363L15.6371 8.79094C15.7375 8.69056 15.8567 8.61093 15.9879 8.55661C16.119 8.50228 16.2596 8.47432 16.4015 8.47432C16.5435 8.47432 16.6841 8.50228 16.8152 8.55661C16.9464 8.61093 17.0656 8.69056 17.1659 8.79094C17.2663 8.89133 17.346 9.0105 17.4003 9.14165C17.4546 9.27281 17.4826 9.41338 17.4826 9.55534C17.4826 9.69731 17.4546 9.83788 17.4003 9.96903C17.346 10.1002 17.2663 10.2194 17.1659 10.3197L17.1333 10.3524C17.0087 10.4798 16.9251 10.6415 16.8933 10.8169C16.8615 10.9922 16.883 11.173 16.955 11.336V11.3791C17.0236 11.539 17.1375 11.6754 17.2827 11.7714C17.4279 11.8673 17.5981 11.9187 17.7721 11.9191H17.8642C18.1459 11.9265 18.4135 12.0436 18.6101 12.2454C18.8067 12.4472 18.9168 12.7178 18.9168 12.9996C18.9168 13.2814 18.8067 13.552 18.6101 13.7538C18.4135 13.9556 18.1459 14.0727 17.8642 14.0801H17.8137C17.6397 14.0805 17.4695 14.1319 17.3243 14.2278C17.1791 14.3238 17.0652 14.4602 16.9966 14.6201L16.9981 14.6209Z" stroke="black" stroke-linecap="round" stroke-linejoin="round"/>
</g>
<defs>
<clipPath id="clip0_95_4757">
<rect width="12.6286" height="12.6286" fill="white" transform="translate(6.68555 6.68567)"/>
</clipPath>
</defs>
</svg>
