<svg width="5" height="7" viewBox="0 0 5 7" fill="none" xmlns="http://www.w3.org/2000/svg">
<path d="M-1.90625e-07 2.63901C-1.86191e-07 2.74045 0.0373351 2.842 0.11075 2.91931L0.143022 2.95338C0.289851 3.1084 0.527582 3.1084 0.674036 2.95338L2.12479 1.42177L2.12479 6.60355C2.12479 6.82239 2.29303 7 2.50031 7C2.7076 7 2.87584 6.82239 2.87584 6.60355L2.87584 1.42177L4.32659 2.95338C4.47342 3.1084 4.71115 3.1084 4.85761 2.95338L4.88988 2.91931C5.03671 2.7643 5.03671 2.51332 4.88988 2.3587L2.76582 0.116259C2.61899 -0.0387541 2.38126 -0.0387541 2.23481 0.116259L0.11075 2.3587C0.037335 2.43621 -1.95059e-07 2.53756 -1.90625e-07 2.63901Z" fill="#0ED6D0"/>
</svg>
