<svg width="26" height="26" viewBox="0 0 26 26" fill="none" xmlns="http://www.w3.org/2000/svg">
<g filter="url(#filter0_d_99_5076)">
<circle cx="13" cy="9" r="9" fill="white"/>
</g>
<path d="M17.9804 12.0084L17.1667 4.81818C17.1667 4.36614 16.7937 4 16.3333 4H13H9.66667C9.20625 4 8.83333 4.36614 8.83333 4.81818L8.01958 12.0084C8.0075 12.0644 8 12.1221 8 12.1818C8 12.6339 8.37292 13 8.83333 13H13H17.1667C17.6271 13 18 12.6339 18 12.1818C18 12.1221 17.9925 12.0644 17.9804 12.0084ZM15.0833 6.00782V6.45455C15.0833 7.58241 14.1487 8.5 13 8.5C11.8512 8.5 10.9167 7.58241 10.9167 6.45455V6.00782C10.6746 5.92355 10.5 5.69855 10.5 5.43182C10.5 5.09309 10.78 4.81818 11.125 4.81818C11.47 4.81818 11.75 5.09309 11.75 5.43182V6.45455C11.75 7.13118 12.3108 7.68182 13 7.68182C13.6892 7.68182 14.25 7.13118 14.25 6.45455V5.43182C14.25 5.09309 14.53 4.81818 14.875 4.81818C15.22 4.81818 15.5 5.09309 15.5 5.43182C15.5 5.69855 15.3254 5.92355 15.0833 6.00782Z" fill="#0ED6D0"/>
<defs>
<filter id="filter0_d_99_5076" x="0" y="0" width="26" height="26" filterUnits="userSpaceOnUse" color-interpolation-filters="sRGB">
<feFlood flood-opacity="0" result="BackgroundImageFix"/>
<feColorMatrix in="SourceAlpha" type="matrix" values="0 0 0 0 0 0 0 0 0 0 0 0 0 0 0 0 0 0 127 0" result="hardAlpha"/>
<feOffset dy="4"/>
<feGaussianBlur stdDeviation="2"/>
<feColorMatrix type="matrix" values="0 0 0 0 0.858824 0 0 0 0 0.188235 0 0 0 0 0.133333 0 0 0 0.16 0"/>
<feBlend mode="normal" in2="BackgroundImageFix" result="effect1_dropShadow_99_5076"/>
<feBlend mode="normal" in="SourceGraphic" in2="effect1_dropShadow_99_5076" result="shape"/>
</filter>
</defs>
</svg>
