<svg width="18" height="15" viewBox="0 0 18 15" fill="none" xmlns="http://www.w3.org/2000/svg">
<path d="M8.09685 13.5448L8.09612 13.5441C5.89725 11.6266 4.11327 10.0678 2.87317 8.60875C1.63787 7.15535 1 5.86592 1 4.49591C1 2.26498 2.81395 0.5 5.175 0.5C6.50996 0.5 7.79427 1.10017 8.62696 2.0332L9 2.45119L9.37304 2.0332C10.2057 1.10017 11.49 0.5 12.825 0.5C15.1861 0.5 17 2.26498 17 4.49591C17 5.86592 16.3621 7.15535 15.1268 8.60875C13.8867 10.0678 12.1028 11.6266 9.90388 13.5441L9.90315 13.5448L9 14.3355L8.09685 13.5448Z" stroke="white"/>
</svg>
