<svg width="16" height="16" viewBox="0 0 16 16" fill="none" xmlns="http://www.w3.org/2000/svg">
<path d="M1 14.75H0.5L0.5 15.25H1L1 14.75ZM15 14.75V15.25H15.5V14.75H15ZM7.64645 11.6036C7.84171 11.7988 8.15829 11.7988 8.35355 11.6036L11.5355 8.42157C11.7308 8.22631 11.7308 7.90973 11.5355 7.71447C11.3403 7.5192 11.0237 7.5192 10.8284 7.71447L8 10.5429L5.17157 7.71447C4.97631 7.5192 4.65973 7.5192 4.46447 7.71447C4.2692 7.90973 4.2692 8.22631 4.46447 8.42157L7.64645 11.6036ZM1 15.25L15 15.25V14.25L1 14.25L1 15.25ZM1.5 14.75L1.5 12.25H0.5L0.5 14.75H1.5ZM15.5 14.75V12.25H14.5V14.75H15.5ZM7.5 0.25L7.5 11.25H8.5L8.5 0.25L7.5 0.25Z" fill="white"/>
</svg>
