<svg width="13" height="14" viewBox="0 0 13 14" fill="none" xmlns="http://www.w3.org/2000/svg">
<path d="M8.49868 10.6923V11.1538C8.49868 11.6435 8.28814 12.1131 7.91339 12.4593C7.53863 12.8055 7.03036 13 6.50037 13C5.97039 13 5.46211 12.8055 5.08736 12.4593C4.7126 12.1131 4.50207 11.6435 4.50207 11.1538V10.6923M11.8608 9.75279C11.059 8.84615 10.4929 8.38462 10.4929 5.8851C10.4929 3.59615 9.22775 2.78067 8.18644 2.38462C8.04812 2.33212 7.91792 2.21154 7.87577 2.08029C7.69311 1.50596 7.18105 1 6.50037 1C5.8197 1 5.30732 1.50625 5.12654 2.08087C5.08439 2.21356 4.95418 2.33212 4.81586 2.38462C3.77331 2.78125 2.50938 3.59385 2.50938 5.8851C2.50782 8.38462 1.94174 8.84615 1.13992 9.75279C0.8077 10.1284 1.0987 10.6923 1.67977 10.6923H11.3241C11.902 10.6923 12.1912 10.1266 11.8608 9.75279Z" stroke="#27343E" stroke-width="0.8" stroke-linecap="round" stroke-linejoin="round"/>
</svg>
