<svg width="14" height="13" viewBox="0 0 14 13" fill="none" xmlns="http://www.w3.org/2000/svg">
<path d="M13 2.21429H4.75M3.25 2.21429H1M13 10.7857H4.75M3.25 10.7857H1M9.25 6.5H1M13 6.5H10.75M4 0.5C4.19891 0.5 4.38968 0.590306 4.53033 0.751051C4.67098 0.911797 4.75 1.12981 4.75 1.35714V3.07143C4.75 3.29876 4.67098 3.51677 4.53033 3.67752C4.38968 3.83827 4.19891 3.92857 4 3.92857C3.80109 3.92857 3.61032 3.83827 3.46967 3.67752C3.32902 3.51677 3.25 3.29876 3.25 3.07143V1.35714C3.25 1.12981 3.32902 0.911797 3.46967 0.751051C3.61032 0.590306 3.80109 0.5 4 0.5ZM4 9.07143C4.19891 9.07143 4.38968 9.16173 4.53033 9.32248C4.67098 9.48323 4.75 9.70124 4.75 9.92857V11.6429C4.75 11.8702 4.67098 12.0882 4.53033 12.2489C4.38968 12.4097 4.19891 12.5 4 12.5C3.80109 12.5 3.61032 12.4097 3.46967 12.2489C3.32902 12.0882 3.25 11.8702 3.25 11.6429V9.92857C3.25 9.70124 3.32902 9.48323 3.46967 9.32248C3.61032 9.16173 3.80109 9.07143 4 9.07143ZM10 4.78571C10.1989 4.78571 10.3897 4.87602 10.5303 5.03677C10.671 5.19751 10.75 5.41553 10.75 5.64286V7.35714C10.75 7.58447 10.671 7.80249 10.5303 7.96323C10.3897 8.12398 10.1989 8.21429 10 8.21429C9.80109 8.21429 9.61032 8.12398 9.46967 7.96323C9.32902 7.80249 9.25 7.58447 9.25 7.35714V5.64286C9.25 5.41553 9.32902 5.19751 9.46967 5.03677C9.61032 4.87602 9.80109 4.78571 10 4.78571Z" stroke="#787486" stroke-width="0.5" stroke-linecap="round" stroke-linejoin="round"/>
</svg>
