<svg width="17" height="16" viewBox="0 0 17 16" fill="none" xmlns="http://www.w3.org/2000/svg">
<path d="M5.7347 2.74253L3.83017 3.80907L4.89671 1.90454L3.83017 0L5.7347 1.06654L7.63924 0L6.5727 1.90454L7.63924 3.80907L5.7347 2.74253ZM14.8765 10.2083L16.781 9.14177L15.7145 11.0463L16.781 12.9508L14.8765 11.8843L12.9719 12.9508L14.0385 11.0463L12.9719 9.14177L14.8765 10.2083ZM16.781 0L15.7145 1.90454L16.781 3.80907L14.8765 2.74253L12.9719 3.80907L14.0385 1.90454L12.9719 0L14.8765 1.06654L16.781 0ZM10.1837 8.21236L12.0425 6.35353L10.4275 4.73848L8.56865 6.59731L10.1837 8.21236ZM10.9684 4.03L12.751 5.81264C13.0481 6.09451 13.0481 6.58969 12.751 6.8868L3.86064 15.7772C3.56353 16.0743 3.06835 16.0743 2.78648 15.7772L1.00384 13.9945C0.706729 13.7127 0.706729 13.2175 1.00384 12.9204L9.89421 4.03C10.1913 3.73289 10.6865 3.73289 10.9684 4.03Z" fill="white"/>
</svg>
